<svg height="482pt" viewBox="0 -32 482.19919 482" width="482pt" xmlns="http://www.w3.org/2000/svg">
    <path class="heart-fill"   d="m354.234375 8.101562c-31.828125-.042968-62.355469 12.628907-84.796875 35.199219l-28.320312 28.320313-28.320313-28.320313c-47.085937-45.476562-121.929687-44.828125-168.21875 1.460938-46.289063 46.289062-46.9375 121.132812-1.460937 168.21875l198 198 198-198c34.300781-34.335938 44.550781-85.945313 25.976562-130.785157-18.578125-44.835937-62.324219-74.078124-110.859375-74.09375zm0 0" />
    <path class="heart-border"   d="m241.117188 418.980469c-2.121094 0-4.15625-.84375-5.65625-2.34375l-198-198c-36.589844-36.625-47.523438-91.675781-27.710938-139.503907 19.8125-47.824218 66.476562-79.015624 118.246094-79.03125 33.964844-.101562 66.554687 13.425782 90.464844 37.550782l22.65625 22.65625 22.664062-22.664063c23.980469-24.035156 56.539062-37.542969 90.496094-37.542969 33.953125 0 66.511718 13.507813 90.496094 37.542969 49.902343 50.011719 49.902343 130.980469 0 180.992188l-198 198c-1.5 1.5-3.535157 2.34375-5.65625 2.34375zm-113.121094-402.878907c-45.285156.035157-86.09375 27.324219-103.421875 69.160157-17.332031 41.835937-7.773438 89.992187 24.222656 122.039062l192.320313 192.367188 192.34375-192.34375c31.992187-32.046875 41.550781-80.199219 24.222656-122.035157-17.332032-41.839843-58.140625-69.128906-103.421875-69.164062-29.710938-.089844-58.214844 11.742188-79.128907 32.847656l-28.335937 28.328125c-3.125 3.121094-8.1875 3.121094-11.3125 0l-28.320313-28.320312c-20.921874-21.121094-49.441406-32.964844-79.167968-32.878907zm0 0"/>
</svg>