<?xml version="1.0" encoding="iso-8859-1"?>
<svg version="1.1" id="Capa_1" xmlns="http://www.w3.org/2000/svg" xmlns:xlink="http://www.w3.org/1999/xlink" x="0px" y="0px"
	 viewBox="0 0 30.001 30.001" style="enable-background:new 0 0 30.001 30.001;" xml:space="preserve">

	<circle  cx="15.001" cy="26.001" r="4"/>
	<path  d="M15,0C7.268,0.001,1.001,6.268,1,14c0,3.094,1.015,5.964,2.721,8.28l-2.72,2.721h8v-8l-2.404,2.404
		C5.59,17.847,5.002,15.999,5.001,14c0.01-5.521,4.479-9.989,10-10C20.522,4.01,24.989,8.479,25,14
		c0.002,3.483-1.774,6.535-4.479,8.333l2.215,3.333c3.77-2.502,6.265-6.799,6.265-11.666C28.998,6.268,22.731,0.001,15,0z"/>

</svg>
